<?xml version="1.0" standalone="yes"?>

<svg version="1.1" viewBox="0.0 0.0 1024.0 768.0" fill="none" stroke="none" stroke-linecap="square" stroke-miterlimit="10" xmlns="http://www.w3.org/2000/svg" xmlns:xlink="http://www.w3.org/1999/xlink"><clipPath id="p.0"><path d="m0 0l1024.0 0l0 768.0l-1024.0 0l0 -768.0z" clip-rule="nonzero"></path></clipPath><g clip-path="url(#p.0)"><path fill="#000000" fill-opacity="0.0" d="m0 0l1024.0 0l0 768.0l-1024.0 0z" fill-rule="nonzero"></path><path fill="#000000" fill-opacity="0.0" d="m295.6273 413.9265l121.00787 0l0 145.29132l-121.00787 0z" fill-rule="nonzero"></path><path stroke="#000000" stroke-width="1.0" stroke-linejoin="round" stroke-linecap="butt" d="m295.6273 413.9265l121.00787 0l0 145.29132l-121.00787 0z" fill-rule="nonzero"></path><path fill="#000000" fill-opacity="0.0" d="m425.53543 116.0l190.99216 0l0 476.0l-190.99216 0z" fill-rule="nonzero"></path><path stroke="#000000" stroke-width="1.0" stroke-linejoin="round" stroke-linecap="butt" d="m425.53543 116.0l190.99216 0l0 476.0l-190.99216 0z" fill-rule="nonzero"></path><path fill="#000000" fill-opacity="0.0" d="m439.00037 251.0002l164.06299 0l0 322.96063l-164.06299 0z" fill-rule="nonzero"></path><path stroke="#000000" stroke-width="1.0" stroke-linejoin="round" stroke-linecap="butt" d="m439.00037 251.0002l164.06299 0l0 322.96063l-164.06299 0z" fill-rule="nonzero"></path><path fill="#000000" fill-opacity="0.0" d="m444.7454 489.65353l0 0c0 -37.364014 29.78189 -67.653534 66.519684 -67.653534l0 0c17.64215 0 34.561646 7.1277466 47.0365 19.815247c12.474915 12.6875 19.483215 29.895447 19.483215 47.838287l0 0c0 37.364044 -29.781921 67.653534 -66.519714 67.653534l0 0c-36.737793 0 -66.519684 -30.28949 -66.519684 -67.653534z" fill-rule="nonzero"></path><path stroke="#000000" stroke-width="1.0" stroke-linejoin="round" stroke-linecap="butt" d="m444.7454 489.65353l0 0c0 -37.364014 29.78189 -67.653534 66.519684 -67.653534l0 0c17.64215 0 34.561646 7.1277466 47.0365 19.815247c12.474915 12.6875 19.483215 29.895447 19.483215 47.838287l0 0c0 37.364044 -29.781921 67.653534 -66.519714 67.653534l0 0c-36.737793 0 -66.519684 -30.28949 -66.519684 -67.653534z" fill-rule="nonzero"></path><path fill="#000000" fill-opacity="0.0" d="m325.60098 178.56177l0 0c0 -26.509659 21.490326 -48.0 48.0 -48.0l0 0c12.730377 0 24.939392 5.057129 33.94113 14.058884c9.0017395 9.0017395 14.058868 21.210724 14.058868 33.941116l0 0c0 26.509674 -21.490326 48.0 -48.0 48.0l0 0c-26.509674 0 -48.0 -21.490326 -48.0 -48.0z" fill-rule="nonzero"></path><path stroke="#000000" stroke-width="1.0" stroke-linejoin="round" stroke-linecap="butt" d="m325.60098 178.56177l0 0c0 -26.509659 21.490326 -48.0 48.0 -48.0l0 0c12.730377 0 24.939392 5.057129 33.94113 14.058884c9.0017395 9.0017395 14.058868 21.210724 14.058868 33.941116l0 0c0 26.509674 -21.490326 48.0 -48.0 48.0l0 0c-26.509674 0 -48.0 -21.490326 -48.0 -48.0z" fill-rule="nonzero"></path><path fill="#000000" d="m380.89487 186.00302q-0.1875 1.734375 -0.84375 2.6875q-0.640625 0.9375 -1.5625 0.9375q-0.6875 0 -1.125 -0.78125q-0.4375 -0.78125 -0.640625 -2.359375q-0.765625 1.578125 -2.015625 2.359375q-1.234375 0.78125 -2.984375 0.78125q-2.390625 0 -3.78125 -1.859375q-1.375 -1.875 -1.375 -5.15625q0 -2.234375 0.6875 -3.859375q0.6875 -1.625 1.921875 -2.46875q1.234375 -0.84375 2.625 -0.84375q1.453125 0 2.5 1.15625q1.046875 1.140625 1.703125 3.4375l0.890625 -4.265625l2.4375 0q-1.578125 7.3125 -1.75 7.9375l-0.484375 1.75q0 0.03125 0.140625 0.765625q0.15625 0.734375 0.546875 1.21875q0.390625 0.484375 1.046875 0.484375q0.5625 0 0.9375 -0.375q0.375 -0.375 0.578125 -1.546875l0.546875 0zm-5.1875 -4.640625q-0.828125 -2.796875 -1.703125 -3.9375q-0.875 -1.15625 -1.953125 -1.15625q-1.265625 0 -2.015625 1.640625q-0.75 1.625 -0.75 4.84375q0 3.21875 0.671875 4.59375q0.671875 1.375 1.921875 1.375q1.0 0 1.78125 -1.046875q0.796875 -1.0625 1.515625 -4.109375l0.53125 -2.203125z" fill-rule="nonzero"></path><path fill="#000000" fill-opacity="0.0" d="m452.44614 176.11028l0 0c0 -26.509674 22.75241 -48.0 50.81891 -48.0l0 0c13.477997 0 26.403961 5.057129 35.934357 14.058868c9.5303955 9.001755 14.8845215 21.21074 14.8845215 33.94113l0 0c0 26.509674 -22.75238 48.0 -50.81888 48.0l0 0c-28.066498 0 -50.81891 -21.490326 -50.81891 -48.0z" fill-rule="nonzero"></path><path stroke="#000000" stroke-width="1.0" stroke-linejoin="round" stroke-linecap="butt" d="m452.44614 176.11028l0 0c0 -26.509674 22.75241 -48.0 50.81891 -48.0l0 0c13.477997 0 26.403961 5.057129 35.934357 14.058868c9.5303955 9.001755 14.8845215 21.21074 14.8845215 33.94113l0 0c0 26.509674 -22.75238 48.0 -50.81888 48.0l0 0c-28.066498 0 -50.81891 -21.490326 -50.81891 -48.0z" fill-rule="nonzero"></path><path fill="#000000" d="m464.27628 165.66277l17.859375 0q-1.40625 -1.40625 -4.890625 -5.71875l1.015625 -1.0q4.1875 4.921875 8.09375 8.3125l-22.078125 0l0 -1.59375z" fill-rule="nonzero"></path><path fill="#000000" d="m502.96378 181.22527l-1.1875 0q-0.375 5.28125 -2.546875 8.140625q-2.171875 2.84375 -5.015625 2.84375q-2.109375 0 -3.328125 -1.0625q-1.203125 -1.078125 -1.203125 -2.984375q0 -0.625 0.421875 -2.359375q0.28125 -1.15625 0.28125 -1.4375q0 -0.625 -0.8125 -0.625q-0.46875 0 -1.890625 0.71875l-0.578125 -2.046875q1.65625 -0.890625 2.84375 -0.890625q1.453125 0 2.25 0.734375q0.796875 0.734375 0.796875 1.984375q0 0.421875 -0.328125 1.828125q-0.359375 1.59375 -0.359375 2.09375q0 0.84375 0.515625 1.34375q0.515625 0.484375 1.390625 0.484375q1.78125 0 3.234375 -2.203125q1.46875 -2.203125 1.78125 -6.5625q-4.0 0 -6.34375 -1.53125q-2.328125 -1.53125 -2.328125 -4.140625q0 -2.140625 1.46875 -3.46875q1.484375 -1.34375 3.90625 -1.34375q2.734375 0 4.28125 2.140625q1.5625 2.125 1.5625 6.15625l1.1875 0l0 2.1875zm-3.734375 -2.1875q0 -2.9375 -0.9375 -4.5625q-0.9375 -1.640625 -2.359375 -1.640625q-1.25 0 -2.015625 0.734375q-0.75 0.734375 -0.75 1.953125q0 1.609375 1.609375 2.5625q1.609375 0.953125 4.453125 0.953125z" fill-rule="nonzero"></path><path fill="#000000" d="m504.45572 202.85027l0 -10.375l1.578125 0l0 1.453125q0.484375 -0.75 1.296875 -1.21875q0.8125 -0.46875 1.84375 -0.46875q1.15625 0 1.890625 0.484375q0.734375 0.46875 1.0469055 1.328125q1.234375 -1.8125 3.203125 -1.8125q1.546875 0 2.375 0.859375q0.828125 0.859375 0.828125 2.625l0 7.125l-1.75 0l0 -6.53125q0 -1.0625 -0.171875 -1.515625q-0.171875 -0.46875 -0.625 -0.75q-0.4375 -0.28125 -1.046875 -0.28125q-1.09375 0 -1.828125 0.734375q-0.71875 0.71875 -0.71875 2.3125l0 6.03125l-1.7500305 0l0 -6.734375q0 -1.171875 -0.4375 -1.75q-0.421875 -0.59375 -1.40625 -0.59375q-0.734375 0 -1.375 0.390625q-0.625 0.390625 -0.90625 1.140625q-0.28125 0.75 -0.28125 2.171875l0 5.375l-1.765625 0z" fill-rule="nonzero"></path><path fill="#000000" fill-opacity="0.0" d="m463.26508 323.05518l0 0c0 -26.509674 21.490326 -48.0 48.0 -48.0l0 0c12.730408 0 24.939392 5.057129 33.9411 14.058868c9.00177 9.00177 14.058899 21.210754 14.058899 33.94113l0 0c0 26.509674 -21.490356 48.0 -48.0 48.0l0 0c-26.509674 0 -48.0 -21.490326 -48.0 -48.0z" fill-rule="nonzero"></path><path stroke="#000000" stroke-width="1.0" stroke-linejoin="round" stroke-linecap="butt" d="m463.26508 323.05518l0 0c0 -26.509674 21.490326 -48.0 48.0 -48.0l0 0c12.730408 0 24.939392 5.057129 33.9411 14.058868c9.00177 9.00177 14.058899 21.210754 14.058899 33.94113l0 0c0 26.509674 -21.490356 48.0 -48.0 48.0l0 0c-26.509674 0 -48.0 -21.490326 -48.0 -48.0z" fill-rule="nonzero"></path><path fill="#000000" d="m488.20352 333.71518l0 -2.0625l9.578125 -11.0q-1.625 0.09375 -2.875 0.09375l-6.125 0l0 -2.0625l12.28125 0l0 1.671875l-8.140625 9.546875l-1.578125 1.75q1.71875 -0.125 3.21875 -0.125l6.953125 0l0 2.1875l-13.3125 0z" fill-rule="nonzero"></path><path fill="#000000" d="m503.61758 344.71518l0 -10.375l1.578125 0l0 1.453125q0.484375 -0.75 1.296875 -1.21875q0.8125 -0.46875 1.84375 -0.46875q1.1562805 0 1.8906555 0.484375q0.734375 0.46875 1.046875 1.328125q1.234375 -1.8125 3.203125 -1.8125q1.546875 0 2.375 0.859375q0.828125 0.859375 0.828125 2.625l0 7.125l-1.75 0l0 -6.53125q0 -1.0625 -0.171875 -1.515625q-0.171875 -0.46875 -0.625 -0.75q-0.4375 -0.28125 -1.046875 -0.28125q-1.09375 0 -1.828125 0.734375q-0.71875 0.71875 -0.71875 2.3125l0 6.03125l-1.75 0l0 -6.734375q0 -1.171875 -0.4375 -1.75q-0.42190552 -0.59375 -1.4062805 -0.59375q-0.734375 0 -1.375 0.390625q-0.625 0.390625 -0.90625 1.140625q-0.28125 0.75 -0.28125 2.171875l0 5.375l-1.765625 0zm16.75119 0l0 -2.0l2.0 0l0 2.0q0 1.109375 -0.390625 1.78125q-0.390625 0.6875 -1.234375 1.046875l-0.5 -0.75q0.5625 -0.234375 0.828125 -0.71875q0.265625 -0.46875 0.296875 -1.359375l-1.0 0zm4.961975 0l0 -10.375l1.59375 0l0 1.484375q1.140625 -1.71875 3.296875 -1.71875q0.9375 0 1.71875 0.34375q0.796875 0.328125 1.1875 0.875q0.390625 0.546875 0.546875 1.296875q0.09375 0.5 0.09375 1.71875l0 6.375l-1.765625 0l0 -6.3125q0 -1.078125 -0.203125 -1.609375q-0.203125 -0.53125 -0.734375 -0.84375q-0.515625 -0.3125 -1.21875 -0.3125q-1.125 0 -1.9375 0.71875q-0.8125 0.703125 -0.8125 2.6875l0 5.671875l-1.765625 0z" fill-rule="nonzero"></path><path fill="#000000" fill-opacity="0.0" d="m454.53806 489.87927l0 0c0 -30.449585 25.579712 -55.13388 57.13385 -55.13388l0 0c15.152863 0 29.68509 5.8087463 40.39975 16.148346c10.714661 10.3396 16.73413 24.363129 16.73413 38.985535l0 0c0 30.449585 -25.579712 55.13385 -57.13388 55.13385l0 0c-31.554138 0 -57.13385 -24.684265 -57.13385 -55.13385z" fill-rule="nonzero"></path><path stroke="#000000" stroke-width="1.0" stroke-linejoin="round" stroke-linecap="butt" d="m454.53806 489.87927l0 0c0 -30.449585 25.579712 -55.13388 57.13385 -55.13388l0 0c15.152863 0 29.68509 5.8087463 40.39975 16.148346c10.714661 10.3396 16.73413 24.363129 16.73413 38.985535l0 0c0 30.449585 -25.579712 55.13385 -57.13388 55.13385l0 0c-31.554138 0 -57.13385 -24.684265 -57.13385 -55.13385z" fill-rule="nonzero"></path><path fill="#000000" d="m489.47748 500.53928l-4.609375 -15.03125l2.640625 0l2.390625 8.671875l0.890625 3.234375q0.0625 -0.25 0.78125 -3.109375l2.390625 -8.796875l2.625 0l2.25 8.71875l0.75 2.875l0.859375 -2.90625l2.578125 -8.6875l2.484375 0l-4.703125 15.03125l-2.640625 0l-2.40625 -9.0l-0.578125 -2.5625l-3.046875 11.5625l-2.65625 0z" fill-rule="nonzero"></path><path fill="#000000" d="m507.28232 511.53928l0 -10.375l1.578125 0l0 1.453125q0.484375 -0.75 1.296875 -1.21875q0.8125 -0.46875 1.8437805 -0.46875q1.15625 0 1.890625 0.484375q0.734375 0.46875 1.046875 1.328125q1.234375 -1.8125 3.203125 -1.8125q1.546875 0 2.375 0.859375q0.828125 0.859375 0.828125 2.625l0 7.125l-1.75 0l0 -6.53125q0 -1.0625 -0.171875 -1.515625q-0.171875 -0.46875 -0.625 -0.75q-0.4375 -0.28125 -1.046875 -0.28125q-1.09375 0 -1.828125 0.734375q-0.71875 0.71875 -0.71875 2.3125l0 6.03125l-1.75 0l0 -6.734375q0 -1.171875 -0.4375 -1.75q-0.421875 -0.59375 -1.4062805 -0.59375q-0.734375 0 -1.375 0.390625q-0.625 0.390625 -0.90625 1.140625q-0.28125 0.75 -0.28125 2.171875l0 5.375l-1.765625 0zm16.75119 0l0 -2.0l2.0 0l0 2.0q0 1.1093445 -0.390625 1.7812195q-0.390625 0.6875 -1.234375 1.046875l-0.5 -0.75q0.5625 -0.234375 0.828125 -0.71875q0.265625 -0.46875 0.296875 -1.3593445l-1.0 0zm4.961975 0l0 -10.375l1.59375 0l0 1.484375q1.140625 -1.71875 3.296875 -1.71875q0.9375 0 1.71875 0.34375q0.796875 0.328125 1.1875 0.875q0.390625 0.546875 0.546875 1.296875q0.09375 0.5 0.09375 1.71875l0 6.375l-1.765625 0l0 -6.3125q0 -1.078125 -0.203125 -1.609375q-0.203125 -0.53125 -0.734375 -0.84375q-0.515625 -0.3125 -1.21875 -0.3125q-1.125 0 -1.9375 0.71875q-0.8125 0.703125 -0.8125 2.6875l0 5.671875l-1.765625 0z" fill-rule="nonzero"></path><path fill="#000000" fill-opacity="0.0" d="m305.31238 486.57217l0 0c0 -28.623138 22.75238 -51.826782 50.81888 -51.826782l0 0c13.478027 0 26.404022 5.460327 35.934387 15.179718c9.5303955 9.719421 14.8845215 22.901764 14.8845215 36.647064l0 0c0 28.623138 -22.75238 51.82675 -50.81891 51.82675l0 0c-28.066498 0 -50.81888 -23.203613 -50.81888 -51.82675z" fill-rule="nonzero"></path><path stroke="#000000" stroke-width="1.0" stroke-linejoin="round" stroke-linecap="butt" d="m305.31238 486.57217l0 0c0 -28.623138 22.75238 -51.826782 50.81888 -51.826782l0 0c13.478027 0 26.404022 5.460327 35.934387 15.179718c9.5303955 9.719421 14.8845215 22.901764 14.8845215 36.647064l0 0c0 28.623138 -22.75238 51.82675 -50.81891 51.82675l0 0c-28.066498 0 -50.81888 -23.203613 -50.81888 -51.82675z" fill-rule="nonzero"></path><path fill="#000000" d="m315.1734 471.7028l0 -1.59375l22.75 0q-1.40625 -1.40625 -4.875 -5.71875l1.0 -1.015625q2.859375 3.390625 7.171875 7.53125q-4.3125 4.140625 -7.171875 7.515625l-1.0 -1.0q3.46875 -4.3125 4.875 -5.71875l-22.75 0z" fill-rule="nonzero"></path><path fill="#000000" d="m348.7984 486.98404l-0.484375 2.203125q-2.9375 0.96875 -2.9375 5.125q0 2.1875 1.15625 3.921875q1.15625 1.71875 3.4375 2.203125l0 -9.34375q0 -1.5 0.21875 -2.3125q0.21875 -0.8125 0.96875 -1.328125q0.765625 -0.515625 2.0625 -0.515625q2.03125 0 3.296875 0.828125q1.265625 0.8125 2.140625 2.578125q0.875 1.765625 0.875 3.8125q0 1.703125 -0.703125 3.40625q-0.6875 1.703125 -2.25 3.140625q-1.546875 1.421875 -4.078125 1.96875l0 5.40625l-2.53125 0l0 -5.40625q-2.625 0 -4.921875 -2.3125q-2.296875 -2.3125 -2.296875 -5.9375q0 -3.359375 1.828125 -5.421875q1.84375 -2.078125 4.21875 -2.015625zm3.703125 13.34375q1.796875 -0.328125 3.078125 -2.0q1.28125 -1.6875 1.28125 -4.421875q0 -2.546875 -0.9375 -3.703125q-0.9375 -1.15625 -1.984375 -1.15625q-0.75 0 -1.09375 0.515625q-0.34375 0.515625 -0.34375 2.265625l0 8.5z" fill-rule="nonzero"></path><path fill="#000000" d="m362.08148 513.3122l0 -14.3125305l1.765625 0l0 8.15625l4.15625 -4.21875l2.265625 0l-3.953125 3.84375l4.359375 6.5312805l-2.171875 0l-3.421875 -5.2969055l-1.234375 1.1875l0 4.1094055l-1.765625 0z" fill-rule="nonzero"></path><path fill="#000000" fill-opacity="0.0" d="m175.80588 486.57217l0 0c0 -28.623138 23.831146 -51.826782 53.228348 -51.826782l0 0c14.117035 0 27.655869 5.4602966 37.638138 15.179718c9.982239 9.719391 15.59021 22.901733 15.59021 36.647064l0 0c0 28.623138 -23.831146 51.82675 -53.228348 51.82675l0 0c-29.397202 0 -53.228348 -23.203613 -53.228348 -51.82675z" fill-rule="nonzero"></path><path stroke="#000000" stroke-width="1.0" stroke-linejoin="round" stroke-linecap="butt" d="m175.80588 486.57217l0 0c0 -28.623138 23.831146 -51.826782 53.228348 -51.826782l0 0c14.117035 0 27.655869 5.4602966 37.638138 15.179718c9.982239 9.719391 15.59021 22.901733 15.59021 36.647064l0 0c0 28.623138 -23.831146 51.82675 -53.228348 51.82675l0 0c-29.397202 0 -53.228348 -23.203613 -53.228348 -51.82675z" fill-rule="nonzero"></path><path fill="#000000" d="m225.11516 495.32593l0 7.671875l-2.53125 0l0 -20.015625q0 -2.390625 0.640625 -3.734375q0.640625 -1.359375 2.21875 -2.234375q1.578125 -0.890625 3.5 -0.890625q2.84375 0 4.3125 1.640625q1.46875 1.625 1.46875 3.5625q0 1.90625 -1.1875 3.0625q-1.1875 1.15625 -2.71875 1.4375q2.46875 0.234375 3.796875 1.765625q1.34375 1.53125 1.34375 3.765625q0 2.40625 -1.578125 4.3125q-1.578125 1.90625 -4.5625 1.90625q-3.0625 0 -4.703125 -2.25zm2.25 -10.328125q2.609375 0 3.796875 -0.90625q1.1875 -0.90625 1.1875 -2.625q0 -1.375 -1.015625 -2.3125q-1.0 -0.9375 -2.515625 -0.9375q-1.328125 0 -2.296875 0.703125q-0.96875 0.6875 -1.1875 1.53125q-0.21875 0.84375 -0.21875 2.96875l0 5.71875q0 2.421875 0.34375 3.578125q0.34375 1.140625 1.453125 2.0625q1.125 0.921875 2.578125 0.921875q1.765625 0 2.796875 -1.203125q1.03125 -1.21875 1.03125 -3.0q0 -1.46875 -0.765625 -2.640625q-0.75 -1.171875 -1.859375 -1.578125q-1.109375 -0.421875 -2.953125 -0.421875l-0.375 0l0 -1.859375z" fill-rule="nonzero"></path><path fill="#000000" d="m410.35266 190.85716l54.015747 0l0 -2.220459l4.4409485 4.440933l-4.4409485 4.4409485l0 -2.2204742l-54.015747 0z" fill-rule="nonzero"></path><path fill="#000000" d="m505.2654 224.11006l0 60.7874l2.0 0l-4.0 4.0l-4.0 -4.0l2.0 0l0 -60.7874z" fill-rule="nonzero"></path><path fill="#000000" d="m505.2654 371.05612l0 60.787384l2.0 0l-4.0 4.0l-4.0 -4.0l2.0 0l0 -60.787384z" fill-rule="nonzero"></path><path fill="#000000" d="m404.8094 484.35938l54.015747 0l0 -2.220459l4.4409485 4.4409485l-4.4409485 4.4409485l0 -2.2204895l-54.015747 0z" fill-rule="nonzero"></path><path fill="#000000" d="m256.55743 484.35938l54.015747 0l0 -2.220459l4.440918 4.4409485l-4.440918 4.4409485l0 -2.2204895l-54.015747 0z" fill-rule="nonzero"></path><path fill="#000000" fill-opacity="0.0" d="m375.0 546.0l576.0 0l0 67.212585l-576.0 0z" fill-rule="nonzero"></path></g></svg>

